<svg viewBox="0 0 400 400" width="400" height="400" xmlns="http://www.w3.org/2000/svg">
<rect width="400" height="400" rx="32" fill="#1a1a2e"/>
<rect x="8" y="8" width="384" height="384" rx="28" fill="none" stroke="#c9aa58" stroke-width="2.5"/>
<rect x="16" y="16" width="368" height="368" rx="24" fill="none" stroke="#c9aa5833" stroke-width="1"/>
<path d="M200 52 L340 100 L340 260 Q340 320 200 360 Q60 320 60 260 L60 100 Z" fill="#0f0f23" stroke="#c9aa58" stroke-width="2"/>
<path d="M200 62 L330 107 L330 258 Q330 313 200 350 Q70 313 70 258 L70 107 Z" fill="none" stroke="#c9aa5833" stroke-width="1"/>
<g opacity="0.12">
<path d="M200 130 Q200 130 200 130 C220 130 235 115 235 100 C235 85 220 70 200 70 C180 70 165 85 165 100 C165 115 180 130 200 130Z" fill="#7B8DB5"/>
<path d="M200 140 C160 140 130 165 130 200 L130 240 C130 250 140 255 160 258 L240 258 C260 255 270 250 270 240 L270 200 C270 165 240 140 200 140Z" fill="#7B8DB5"/>
<rect x="175" y="258" width="20" height="60" rx="4" fill="#7B8DB5"/>
<rect x="205" y="258" width="20" height="60" rx="4" fill="#7B8DB5"/>
</g>
<g opacity="0.35">
<path d="M200 130 Q200 130 200 130 C220 130 235 115 235 100 C235 85 220 70 200 70 C180 70 165 85 165 100 C165 115 180 130 200 130Z" fill="#7B8DB5" stroke="#9BAFD4" stroke-width="0.5" stroke-dasharray="4 3"/>
<path d="M200 140 C160 140 130 165 130 200 L130 240 C130 250 140 255 160 258 L240 258 C260 255 270 250 270 240 L270 200 C270 165 240 140 200 140Z" fill="#7B8DB5" stroke="#9BAFD4" stroke-width="0.5" stroke-dasharray="4 3"/>
<rect x="175" y="258" width="20" height="60" rx="4" fill="#7B8DB5" stroke="#9BAFD4" stroke-width="0.5" stroke-dasharray="4 3"/>
<rect x="205" y="258" width="20" height="60" rx="4" fill="#7B8DB5" stroke="#9BAFD4" stroke-width="0.5" stroke-dasharray="4 3"/>
</g>
<g>
<ellipse cx="200" cy="195" rx="62" ry="32" fill="none" stroke="#c9aa58" stroke-width="2.5"/>
<circle cx="200" cy="195" r="14" fill="#c9aa58" opacity="0.9"/>
<circle cx="200" cy="195" r="6" fill="#1a1a2e"/>
<line x1="152" y1="230" x2="248" y2="160" stroke="#e74c4c" stroke-width="5" stroke-linecap="round"/>
<line x1="152" y1="230" x2="248" y2="160" stroke="#ff6b6b" stroke-width="3" stroke-linecap="round"/>
</g>
<g opacity="0.5">
<circle cx="120" cy="140" r="2" fill="#c9aa58"/>
<circle cx="280" cy="140" r="2" fill="#c9aa58"/>
<circle cx="100" cy="260" r="1.5" fill="#c9aa58"/>
<circle cx="300" cy="260" r="1.5" fill="#c9aa58"/>
<circle cx="140" cy="330" r="1" fill="#c9aa58"/>
<circle cx="260" cy="330" r="1" fill="#c9aa58"/>
<circle cx="90" cy="190" r="1" fill="#c9aa58"/>
<circle cx="310" cy="190" r="1" fill="#c9aa58"/>
</g>
</svg>
